<svg width="493" height="63" viewBox="0 0 493 63" fill="none" xmlns="http://www.w3.org/2000/svg">
<path d="M37.0859 9.26367H22.6768V49H14.7104V9.26367H0.428223V2.78906H37.0859V9.26367ZM54.7007 49.6348C49.813 49.6348 45.8457 48.1007 42.7988 45.0327C39.7731 41.9435 38.2603 37.8387 38.2603 32.7183V31.7661C38.2603 28.3384 38.9162 25.2809 40.228 22.5938C41.561 19.8854 43.423 17.7801 45.814 16.2778C48.2049 14.7756 50.8709 14.0244 53.812 14.0244C58.4881 14.0244 62.0957 15.5161 64.6348 18.4995C67.195 21.4829 68.4751 25.7041 68.4751 31.1631V34.2734H46.0361C46.2689 37.1087 47.2104 39.3516 48.8608 41.002C50.5324 42.6523 52.6271 43.4775 55.145 43.4775C58.6785 43.4775 61.5562 42.0493 63.7778 39.1929L67.9355 43.1602C66.5602 45.2126 64.7194 46.8101 62.4131 47.9526C60.1279 49.0741 57.5571 49.6348 54.7007 49.6348ZM53.7803 20.2134C51.6644 20.2134 49.9505 20.9539 48.6387 22.4351C47.348 23.9162 46.5228 25.9792 46.1631 28.624H60.8579V28.0527C60.6886 25.4714 60.001 23.5247 58.7949 22.2129C57.5889 20.8799 55.9173 20.2134 53.7803 20.2134ZM88.5972 43.4775C90.5226 43.4775 92.1201 42.9168 93.3896 41.7954C94.6592 40.674 95.3363 39.2881 95.4209 37.6377H102.689C102.604 39.7747 101.938 41.7743 100.689 43.6362C99.4411 45.4771 97.7484 46.937 95.6113 48.0161C93.4743 49.0952 91.168 49.6348 88.6924 49.6348C83.8893 49.6348 80.0807 48.0796 77.2666 44.9692C74.4525 41.8589 73.0454 37.5636 73.0454 32.0835V31.29C73.0454 26.0638 74.4419 21.8849 77.2349 18.7534C80.0278 15.6007 83.8364 14.0244 88.6606 14.0244C92.7443 14.0244 96.0662 15.2199 98.6265 17.6108C101.208 19.9806 102.562 23.1016 102.689 26.9736H95.4209C95.3363 25.0059 94.6592 23.3872 93.3896 22.1177C92.1413 20.8481 90.5438 20.2134 88.5972 20.2134C86.1004 20.2134 84.175 21.1232 82.8208 22.9429C81.4666 24.7414 80.779 27.4814 80.7578 31.1631V32.4009C80.7578 36.1248 81.4243 38.9072 82.7573 40.748C84.1115 42.5677 86.0581 43.4775 88.5972 43.4775ZM116.114 18.4043C118.632 15.4844 121.817 14.0244 125.667 14.0244C132.988 14.0244 136.702 18.2033 136.808 26.561V49H129.095V26.8467C129.095 24.4769 128.577 22.8053 127.54 21.832C126.524 20.8376 125.022 20.3403 123.033 20.3403C119.944 20.3403 117.638 21.7157 116.114 24.4663V49H108.402V0.25H116.114V18.4043ZM151.788 14.6592L152.01 18.6265C154.549 15.5584 157.882 14.0244 162.008 14.0244C169.16 14.0244 172.799 18.1187 172.926 26.3071V49H165.213V26.7515C165.213 24.5721 164.737 22.964 163.785 21.9272C162.854 20.8693 161.32 20.3403 159.183 20.3403C156.073 20.3403 153.756 21.7474 152.232 24.5615V49H144.52V14.6592H151.788ZM179.369 31.5122C179.369 28.1479 180.035 25.1222 181.368 22.4351C182.701 19.7267 184.574 17.6532 186.986 16.2144C189.398 14.7544 192.17 14.0244 195.301 14.0244C199.935 14.0244 203.691 15.5161 206.568 18.4995C209.467 21.4829 211.033 25.4396 211.266 30.3696L211.297 32.1787C211.297 35.5641 210.641 38.5898 209.33 41.2559C208.039 43.9219 206.177 45.9849 203.744 47.4448C201.332 48.9048 198.539 49.6348 195.365 49.6348C190.519 49.6348 186.637 48.0267 183.717 44.8105C180.818 41.5732 179.369 37.2674 179.369 31.8931V31.5122ZM187.081 32.1787C187.081 35.7122 187.811 38.484 189.271 40.4941C190.731 42.4831 192.762 43.4775 195.365 43.4775C197.967 43.4775 199.988 42.4619 201.427 40.4307C202.887 38.3994 203.617 35.4266 203.617 31.5122C203.617 28.0422 202.866 25.2915 201.363 23.2603C199.882 21.229 197.861 20.2134 195.301 20.2134C192.783 20.2134 190.784 21.2184 189.303 23.2285C187.822 25.2174 187.081 28.2008 187.081 32.1787ZM226.024 49H218.312V0.25H226.024V49ZM233.006 31.5122C233.006 28.1479 233.673 25.1222 235.006 22.4351C236.339 19.7267 238.211 17.6532 240.624 16.2144C243.036 14.7544 245.807 14.0244 248.939 14.0244C253.573 14.0244 257.328 15.5161 260.206 18.4995C263.105 21.4829 264.671 25.4396 264.903 30.3696L264.935 32.1787C264.935 35.5641 264.279 38.5898 262.967 41.2559C261.677 43.9219 259.815 45.9849 257.381 47.4448C254.969 48.9048 252.176 49.6348 249.002 49.6348C244.157 49.6348 240.274 48.0267 237.354 44.8105C234.456 41.5732 233.006 37.2674 233.006 31.8931V31.5122ZM240.719 32.1787C240.719 35.7122 241.449 38.484 242.909 40.4941C244.369 42.4831 246.4 43.4775 249.002 43.4775C251.605 43.4775 253.626 42.4619 255.064 40.4307C256.524 38.3994 257.254 35.4266 257.254 31.5122C257.254 28.0422 256.503 25.2915 255.001 23.2603C253.52 21.229 251.499 20.2134 248.939 20.2134C246.421 20.2134 244.422 21.2184 242.94 23.2285C241.459 25.2174 240.719 28.2008 240.719 32.1787ZM270.108 31.5757C270.108 26.2437 271.357 21.9907 273.854 18.8169C276.371 15.6219 279.704 14.0244 283.851 14.0244C287.765 14.0244 290.844 15.3892 293.087 18.1187L293.436 14.6592H300.387V47.9526C300.387 52.4595 298.98 56.0142 296.166 58.6167C293.373 61.2192 289.596 62.5205 284.835 62.5205C282.317 62.5205 279.852 61.9915 277.44 60.9336C275.049 59.8968 273.229 58.5321 271.981 56.8394L275.631 52.2056C278.001 55.0197 280.921 56.4268 284.391 56.4268C286.951 56.4268 288.972 55.7285 290.453 54.332C291.934 52.9567 292.674 50.9255 292.674 48.2383V45.9214C290.453 48.397 287.49 49.6348 283.788 49.6348C279.767 49.6348 276.477 48.0373 273.917 44.8423C271.378 41.6473 270.108 37.2251 270.108 31.5757ZM277.789 32.2422C277.789 35.6911 278.487 38.41 279.884 40.3989C281.301 42.3667 283.259 43.3506 285.755 43.3506C288.866 43.3506 291.172 42.0176 292.674 39.3516V24.2441C291.214 21.6416 288.929 20.3403 285.819 20.3403C283.28 20.3403 281.301 21.3454 279.884 23.3555C278.487 25.3656 277.789 28.3278 277.789 32.2422ZM316.542 49H308.829V14.6592H316.542V49ZM308.353 5.74072C308.353 4.55583 308.723 3.57194 309.464 2.78906C310.226 2.00618 311.305 1.61475 312.701 1.61475C314.098 1.61475 315.177 2.00618 315.938 2.78906C316.7 3.57194 317.081 4.55583 317.081 5.74072C317.081 6.90446 316.7 7.87777 315.938 8.66064C315.177 9.42236 314.098 9.80322 312.701 9.80322C311.305 9.80322 310.226 9.42236 309.464 8.66064C308.723 7.87777 308.353 6.90446 308.353 5.74072ZM358.88 31.1948H349.93V49H341.9V2.78906H358.15C363.482 2.78906 367.598 3.98454 370.497 6.37549C373.395 8.76644 374.845 12.2259 374.845 16.7539C374.845 19.8431 374.094 22.4351 372.591 24.5298C371.11 26.6034 369.037 28.2008 366.371 29.3223L376.749 48.5874V49H368.148L358.88 31.1948ZM349.93 24.752H358.182C360.89 24.752 363.006 24.0749 364.53 22.7207C366.053 21.3454 366.815 19.4728 366.815 17.103C366.815 14.6274 366.106 12.7126 364.688 11.3584C363.292 10.0042 361.197 9.30599 358.404 9.26367H349.93V24.752ZM380.272 31.5122C380.272 28.1479 380.938 25.1222 382.271 22.4351C383.604 19.7267 385.477 17.6532 387.889 16.2144C390.301 14.7544 393.073 14.0244 396.205 14.0244C400.838 14.0244 404.594 15.5161 407.472 18.4995C410.37 21.4829 411.936 25.4396 412.169 30.3696L412.201 32.1787C412.201 35.5641 411.545 38.5898 410.233 41.2559C408.942 43.9219 407.08 45.9849 404.647 47.4448C402.235 48.9048 399.442 49.6348 396.268 49.6348C391.423 49.6348 387.54 48.0267 384.62 44.8105C381.721 41.5732 380.272 37.2674 380.272 31.8931V31.5122ZM387.984 32.1787C387.984 35.7122 388.714 38.484 390.174 40.4941C391.634 42.4831 393.666 43.4775 396.268 43.4775C398.871 43.4775 400.891 42.4619 402.33 40.4307C403.79 38.3994 404.52 35.4266 404.52 31.5122C404.52 28.0422 403.769 25.2915 402.267 23.2603C400.785 21.229 398.765 20.2134 396.205 20.2134C393.687 20.2134 391.687 21.2184 390.206 23.2285C388.725 25.2174 387.984 28.2008 387.984 32.1787ZM430.228 37.9551L437.21 14.6592H445.431L431.783 54.2051C429.688 59.9814 426.134 62.8696 421.119 62.8696C419.998 62.8696 418.76 62.6792 417.406 62.2983V56.3315L418.866 56.4268C420.812 56.4268 422.272 56.0671 423.246 55.3477C424.24 54.6494 425.023 53.4645 425.594 51.793L426.705 48.8413L414.645 14.6592H422.96L430.228 37.9551ZM469.901 49C469.562 48.3441 469.266 47.2756 469.012 45.7944C466.558 48.3547 463.553 49.6348 459.999 49.6348C456.55 49.6348 453.736 48.6509 451.556 46.6831C449.377 44.7153 448.287 42.2821 448.287 39.3833C448.287 35.7228 449.641 32.9193 452.35 30.9727C455.079 29.0049 458.972 28.021 464.029 28.021H468.758V25.7676C468.758 23.9902 468.261 22.5726 467.267 21.5146C466.272 20.4355 464.759 19.896 462.728 19.896C460.972 19.896 459.533 20.3403 458.412 21.229C457.29 22.0965 456.729 23.2074 456.729 24.5615H449.017C449.017 22.6784 449.641 20.9222 450.89 19.293C452.138 17.6426 453.831 16.3519 455.968 15.4209C458.126 14.4899 460.528 14.0244 463.172 14.0244C467.193 14.0244 470.398 15.04 472.789 17.0713C475.18 19.0814 476.407 21.9167 476.471 25.5771V41.0654C476.471 44.1546 476.904 46.6196 477.772 48.4604V49H469.901ZM461.427 43.4458C462.95 43.4458 464.378 43.0755 465.711 42.335C467.066 41.5944 468.081 40.5999 468.758 39.3516V32.877H464.601C461.744 32.877 459.597 33.3742 458.158 34.3687C456.719 35.3631 456 36.7702 456 38.5898C456 40.071 456.486 41.2559 457.459 42.1445C458.454 43.012 459.776 43.4458 461.427 43.4458ZM492.752 49H485.04V0.25H492.752V49Z" fill="white"/>
</svg>
