<svg width="379" height="49" viewBox="0 0 379 49" fill="none" xmlns="http://www.w3.org/2000/svg">
<path d="M28.2969 7.43359H17.2129V38H11.085V7.43359H0.0986328V2.45312H28.2969V7.43359ZM41.8467 38.4883C38.0869 38.4883 35.0352 37.3083 32.6914 34.9482C30.3639 32.5719 29.2002 29.4144 29.2002 25.4756V24.7432C29.2002 22.1064 29.7048 19.7546 30.7139 17.6875C31.7393 15.6042 33.1715 13.9847 35.0107 12.8291C36.8499 11.6735 38.9007 11.0957 41.1631 11.0957C44.7601 11.0957 47.5352 12.2432 49.4883 14.5381C51.4577 16.833 52.4424 20.0801 52.4424 24.2793V26.6719H35.1816C35.3607 28.8529 36.085 30.5781 37.3545 31.8477C38.6403 33.1172 40.2516 33.752 42.1885 33.752C44.9066 33.752 47.1201 32.6533 48.8291 30.4561L52.0273 33.5078C50.9694 35.0866 49.5534 36.3154 47.7793 37.1943C46.0215 38.057 44.0439 38.4883 41.8467 38.4883ZM41.1387 15.8564C39.5111 15.8564 38.1927 16.4261 37.1836 17.5654C36.1908 18.7048 35.556 20.2917 35.2793 22.3262H46.583V21.8867C46.4528 19.901 45.9238 18.4036 44.9961 17.3945C44.0684 16.3691 42.7826 15.8564 41.1387 15.8564ZM67.9209 33.752C69.402 33.752 70.6309 33.3206 71.6074 32.458C72.584 31.5954 73.1048 30.5293 73.1699 29.2598H78.7607C78.6956 30.9036 78.1829 32.4417 77.2227 33.874C76.2624 35.29 74.9603 36.4131 73.3164 37.2432C71.6725 38.0732 69.8984 38.4883 67.9941 38.4883C64.2995 38.4883 61.3698 37.292 59.2051 34.8994C57.0404 32.5068 55.958 29.2028 55.958 24.9873V24.377C55.958 20.3568 57.0322 17.1423 59.1807 14.7334C61.3291 12.3083 64.2588 11.0957 67.9697 11.0957C71.111 11.0957 73.6663 12.0153 75.6357 13.8545C77.6214 15.6774 78.6631 18.0781 78.7607 21.0566H73.1699C73.1048 19.543 72.584 18.2979 71.6074 17.3213C70.6471 16.3447 69.4183 15.8564 67.9209 15.8564C66.0003 15.8564 64.5192 16.5563 63.4775 17.9561C62.4359 19.3395 61.9069 21.4473 61.8906 24.2793V25.2314C61.8906 28.096 62.4033 30.2363 63.4287 31.6523C64.4704 33.0521 65.9678 33.752 67.9209 33.752ZM89.0879 14.4648C91.0247 12.2188 93.4743 11.0957 96.4365 11.0957C102.068 11.0957 104.924 14.3102 105.006 20.7393V38H99.0732V20.959C99.0732 19.1361 98.6745 17.8503 97.877 17.1016C97.0957 16.3366 95.9401 15.9541 94.4102 15.9541C92.0339 15.9541 90.2598 17.012 89.0879 19.1279V38H83.1553V0.5H89.0879V14.4648ZM116.529 11.584L116.7 14.6357C118.653 12.2757 121.217 11.0957 124.391 11.0957C129.892 11.0957 132.691 14.2451 132.789 20.5439V38H126.856V20.8857C126.856 19.2093 126.49 17.9723 125.758 17.1748C125.042 16.361 123.862 15.9541 122.218 15.9541C119.825 15.9541 118.043 17.0365 116.871 19.2012V38H110.938V11.584H116.529ZM137.745 24.5479C137.745 21.96 138.258 19.6325 139.283 17.5654C140.309 15.4821 141.749 13.887 143.604 12.7803C145.46 11.6572 147.592 11.0957 150.001 11.0957C153.565 11.0957 156.454 12.2432 158.668 14.5381C160.898 16.833 162.102 19.8766 162.281 23.6689L162.306 25.0605C162.306 27.6647 161.801 29.9922 160.792 32.043C159.799 34.0938 158.367 35.6807 156.495 36.8037C154.64 37.9268 152.491 38.4883 150.05 38.4883C146.323 38.4883 143.336 37.2513 141.09 34.7773C138.86 32.2871 137.745 28.9749 137.745 24.8408V24.5479ZM143.678 25.0605C143.678 27.7786 144.239 29.9108 145.362 31.457C146.485 32.987 148.048 33.752 150.05 33.752C152.052 33.752 153.606 32.9707 154.713 31.4082C155.836 29.8457 156.397 27.5589 156.397 24.5479C156.397 21.8786 155.82 19.7627 154.664 18.2002C153.525 16.6377 151.97 15.8564 150.001 15.8564C148.064 15.8564 146.526 16.6296 145.387 18.1758C144.247 19.7057 143.678 22.0007 143.678 25.0605ZM173.634 38H167.701V0.5H173.634V38ZM179.005 24.5479C179.005 21.96 179.518 19.6325 180.543 17.5654C181.568 15.4821 183.009 13.887 184.864 12.7803C186.72 11.6572 188.852 11.0957 191.261 11.0957C194.825 11.0957 197.714 12.2432 199.928 14.5381C202.158 16.833 203.362 19.8766 203.541 23.6689L203.565 25.0605C203.565 27.6647 203.061 29.9922 202.052 32.043C201.059 34.0938 199.627 35.6807 197.755 36.8037C195.899 37.9268 193.751 38.4883 191.31 38.4883C187.582 38.4883 184.596 37.2513 182.35 34.7773C180.12 32.2871 179.005 28.9749 179.005 24.8408V24.5479ZM184.938 25.0605C184.938 27.7786 185.499 29.9108 186.622 31.457C187.745 32.987 189.308 33.752 191.31 33.752C193.312 33.752 194.866 32.9707 195.973 31.4082C197.096 29.8457 197.657 27.5589 197.657 24.5479C197.657 21.8786 197.079 19.7627 195.924 18.2002C194.785 16.6377 193.23 15.8564 191.261 15.8564C189.324 15.8564 187.786 16.6296 186.646 18.1758C185.507 19.7057 184.938 22.0007 184.938 25.0605ZM207.545 24.5967C207.545 20.4951 208.505 17.2236 210.426 14.7822C212.363 12.3245 214.926 11.0957 218.116 11.0957C221.127 11.0957 223.495 12.1455 225.221 14.2451L225.489 11.584H230.836V37.1943C230.836 40.6611 229.754 43.3955 227.589 45.3975C225.44 47.3994 222.535 48.4004 218.873 48.4004C216.936 48.4004 215.04 47.9935 213.185 47.1797C211.345 46.3822 209.946 45.3324 208.985 44.0303L211.793 40.4658C213.616 42.6305 215.862 43.7129 218.531 43.7129C220.501 43.7129 222.055 43.1758 223.194 42.1016C224.334 41.0436 224.903 39.4811 224.903 37.4141V35.6318C223.194 37.5361 220.916 38.4883 218.067 38.4883C214.975 38.4883 212.444 37.2594 210.475 34.8018C208.521 32.3441 207.545 28.9424 207.545 24.5967ZM213.453 25.1094C213.453 27.7624 213.99 29.8538 215.064 31.3838C216.155 32.8975 217.66 33.6543 219.581 33.6543C221.974 33.6543 223.748 32.6289 224.903 30.5781V18.957C223.78 16.9551 222.022 15.9541 219.63 15.9541C217.677 15.9541 216.155 16.7272 215.064 18.2734C213.99 19.8197 213.453 22.0983 213.453 25.1094ZM243.263 38H237.33V11.584H243.263V38ZM236.964 4.72363C236.964 3.81217 237.249 3.05534 237.818 2.45312C238.404 1.85091 239.234 1.5498 240.309 1.5498C241.383 1.5498 242.213 1.85091 242.799 2.45312C243.385 3.05534 243.678 3.81217 243.678 4.72363C243.678 5.61882 243.385 6.36751 242.799 6.96973C242.213 7.55566 241.383 7.84863 240.309 7.84863C239.234 7.84863 238.404 7.55566 237.818 6.96973C237.249 6.36751 236.964 5.61882 236.964 4.72363ZM275.831 24.3037H268.946V38H262.77V2.45312H275.27C279.371 2.45312 282.537 3.37272 284.767 5.21191C286.996 7.05111 288.111 9.71224 288.111 13.1953C288.111 15.5716 287.534 17.5654 286.378 19.1768C285.239 20.7718 283.644 22.0007 281.593 22.8633L289.576 37.6826V38H282.96L275.831 24.3037ZM268.946 19.3477H275.294C277.377 19.3477 279.005 18.8268 280.177 17.7852C281.349 16.7272 281.935 15.2868 281.935 13.4639C281.935 11.5596 281.389 10.0866 280.299 9.04492C279.225 8.00326 277.613 7.46615 275.465 7.43359H268.946V19.3477ZM292.286 24.5479C292.286 21.96 292.799 19.6325 293.824 17.5654C294.85 15.4821 296.29 13.887 298.146 12.7803C300.001 11.6572 302.133 11.0957 304.542 11.0957C308.106 11.0957 310.995 12.2432 313.209 14.5381C315.439 16.833 316.643 19.8766 316.822 23.6689L316.847 25.0605C316.847 27.6647 316.342 29.9922 315.333 32.043C314.34 34.0938 312.908 35.6807 311.036 36.8037C309.181 37.9268 307.032 38.4883 304.591 38.4883C300.864 38.4883 297.877 37.2513 295.631 34.7773C293.401 32.2871 292.286 28.9749 292.286 24.8408V24.5479ZM298.219 25.0605C298.219 27.7786 298.78 29.9108 299.903 31.457C301.026 32.987 302.589 33.752 304.591 33.752C306.593 33.752 308.147 32.9707 309.254 31.4082C310.377 29.8457 310.938 27.5589 310.938 24.5479C310.938 21.8786 310.361 19.7627 309.205 18.2002C308.066 16.6377 306.511 15.8564 304.542 15.8564C302.605 15.8564 301.067 16.6296 299.928 18.1758C298.788 19.7057 298.219 22.0007 298.219 25.0605ZM330.714 29.5039L336.085 11.584H342.408L331.91 42.0039C330.299 46.4473 327.564 48.6689 323.707 48.6689C322.844 48.6689 321.892 48.5225 320.851 48.2295V43.6396L321.974 43.7129C323.471 43.7129 324.594 43.4362 325.343 42.8828C326.108 42.3457 326.71 41.4342 327.149 40.1484L328.004 37.8779L318.727 11.584H325.123L330.714 29.5039ZM361.231 38C360.971 37.4954 360.743 36.6735 360.548 35.5342C358.66 37.5036 356.349 38.4883 353.614 38.4883C350.961 38.4883 348.797 37.7314 347.12 36.2178C345.444 34.7041 344.605 32.8324 344.605 30.6025C344.605 27.7868 345.647 25.6302 347.73 24.1328C349.83 22.6191 352.825 21.8623 356.715 21.8623H360.353V20.1289C360.353 18.7617 359.97 17.6712 359.205 16.8574C358.44 16.0273 357.276 15.6123 355.714 15.6123C354.363 15.6123 353.256 15.9541 352.394 16.6377C351.531 17.305 351.1 18.1595 351.1 19.2012H345.167C345.167 17.7526 345.647 16.4017 346.607 15.1484C347.568 13.8789 348.87 12.8861 350.514 12.1699C352.174 11.4538 354.021 11.0957 356.056 11.0957C359.148 11.0957 361.614 11.877 363.453 13.4395C365.292 14.9857 366.236 17.1667 366.285 19.9824V31.8965C366.285 34.2728 366.619 36.1689 367.286 37.585V38H361.231ZM354.713 33.7275C355.885 33.7275 356.983 33.4427 358.009 32.873C359.05 32.3034 359.832 31.5384 360.353 30.5781V25.5977H357.154C354.957 25.5977 353.305 25.9801 352.198 26.7451C351.091 27.5101 350.538 28.5924 350.538 29.9922C350.538 31.1315 350.912 32.043 351.661 32.7266C352.426 33.3939 353.443 33.7275 354.713 33.7275ZM378.81 38H372.877V0.5H378.81V38Z" fill="white"/>
</svg>
